<svg width="18" height="10" viewBox="0 0 18 10" fill="none" xmlns="http://www.w3.org/2000/svg">
<path d="M1.17674 1.43024L1.17676 1.43023L1.5303 1.07664C1.53031 1.07664 1.53031 1.07663 1.53032 1.07663C1.62794 0.979014 1.78621 0.97901 1.88385 1.07665C1.88385 1.07665 1.88385 1.07665 1.88385 1.07665L8.64641 7.83925L8.99996 8.1928L9.35352 7.83925L16.1161 1.07665C16.2138 0.979008 16.372 0.979008 16.4696 1.07665L16.8232 1.43025C16.9208 1.52788 16.9208 1.6861 16.8232 1.78374L9.17671 9.43024C9.07907 9.52788 8.92085 9.52788 8.82322 9.43024L1.17674 1.78375C1.17674 1.78374 1.17674 1.78374 1.17674 1.78374C1.07911 1.6861 1.07911 1.52788 1.17674 1.43024Z" fill="black" stroke="black"/>
</svg>
