<?xml version="1.0" encoding="utf-8"?>
<!-- Generator: Adobe Illustrator 24.0.0, SVG Export Plug-In . SVG Version: 6.00 Build 0)  -->
<svg version="1.1" id="Layer_1" xmlns="http://www.w3.org/2000/svg" xmlns:xlink="http://www.w3.org/1999/xlink" x="0px" y="0px"
	 width="116px" height="20px" viewBox="0 0 116 20" style="enable-background:new 0 0 116 20;" xml:space="preserve">
<style type="text/css">
	.st0{clip-path:url(#SVGID_2_);}
	.st1{fill:#FF9800;}
</style>
<g>
	<defs>
		<rect id="SVGID_1_" x="0" y="0.3" width="116" height="18.9"/>
	</defs>
	<clipPath id="SVGID_2_">
		<use xlink:href="#SVGID_1_"  style="overflow:visible;"/>
	</clipPath>
	<g class="st0">
		<path class="st1" d="M9.1,0.9c0.3-0.8,1.5-0.8,1.9,0l2,4.8c0.1,0.3,0.5,0.6,0.8,0.6l5.3,0.4c0.9,0.1,1.3,1.2,0.6,1.7l-4,3.4
			c-0.3,0.2-0.4,0.6-0.3,1l1.2,5.1c0.2,0.9-0.7,1.5-1.5,1.1l-4.5-2.7c-0.3-0.2-0.7-0.2-1,0L5,19c-0.8,0.5-1.7-0.2-1.5-1.1l1.2-5.1
			c0.1-0.4,0-0.7-0.3-1l-4-3.4C-0.3,7.9,0,6.8,0.9,6.8l5.3-0.4c0.4,0,0.7-0.3,0.8-0.6L9.1,0.9z"/>
		<path class="st1" d="M33.1,0.9c0.3-0.8,1.5-0.8,1.9,0l2,4.8c0.1,0.3,0.5,0.6,0.8,0.6l5.3,0.4c0.9,0.1,1.3,1.2,0.6,1.7l-4,3.4
			c-0.3,0.2-0.4,0.6-0.3,1l1.2,5.1c0.2,0.9-0.7,1.5-1.5,1.1l-4.5-2.7c-0.3-0.2-0.7-0.2-1,0L29,19c-0.8,0.5-1.7-0.2-1.5-1.1l1.2-5.1
			c0.1-0.4,0-0.7-0.3-1l-4-3.4c-0.7-0.6-0.3-1.7,0.6-1.7l5.3-0.4c0.4,0,0.7-0.3,0.8-0.6L33.1,0.9z"/>
		<path class="st1" d="M57.1,0.9c0.3-0.8,1.5-0.8,1.9,0l2,4.8c0.1,0.3,0.5,0.6,0.8,0.6l5.3,0.4c0.9,0.1,1.3,1.2,0.6,1.7l-4,3.4
			c-0.3,0.2-0.4,0.6-0.3,1l1.2,5.1c0.2,0.9-0.7,1.5-1.5,1.1l-4.5-2.7c-0.3-0.2-0.7-0.2-1,0L53,19c-0.8,0.5-1.7-0.2-1.5-1.1l1.2-5.1
			c0.1-0.4,0-0.7-0.3-1l-4-3.4c-0.7-0.6-0.3-1.7,0.6-1.7l5.3-0.4c0.4,0,0.7-0.3,0.8-0.6L57.1,0.9z"/>
		<path class="st1" d="M81.1,0.9c0.3-0.8,1.5-0.8,1.9,0l2,4.8c0.1,0.3,0.5,0.6,0.8,0.6l5.3,0.4c0.9,0.1,1.3,1.2,0.6,1.7l-4,3.4
			c-0.3,0.2-0.4,0.6-0.3,1l1.2,5.1c0.2,0.9-0.7,1.5-1.5,1.1l-4.5-2.7c-0.3-0.2-0.7-0.2-1,0L77,19c-0.8,0.5-1.7-0.2-1.5-1.1l1.2-5.1
			c0.1-0.4,0-0.7-0.3-1l-4-3.4c-0.7-0.6-0.3-1.7,0.6-1.7l5.3-0.4c0.4,0,0.7-0.3,0.8-0.6L81.1,0.9z"/>
		<path class="st1" d="M105.1,0.9c0.3-0.8,1.5-0.8,1.9,0l2,4.8c0.1,0.3,0.5,0.6,0.8,0.6l5.3,0.4c0.9,0.1,1.3,1.2,0.6,1.7l-4,3.4
			c-0.3,0.2-0.4,0.6-0.3,1l1.2,5.1c0.2,0.9-0.7,1.5-1.5,1.1l-4.5-2.7c-0.3-0.2-0.7-0.2-1,0L101,19c-0.8,0.5-1.7-0.2-1.5-1.1l1.2-5.1
			c0.1-0.4,0-0.7-0.3-1l-4-3.4c-0.7-0.6-0.3-1.7,0.6-1.7l5.3-0.4c0.4,0,0.7-0.3,0.8-0.6L105.1,0.9z"/>
	</g>
</g>
</svg>
